<svg width="222" height="71" viewBox="0 0 222 71" fill="none" xmlns="http://www.w3.org/2000/svg">
<path d="M69.501 35.2534H65.326V42.0034H62.301V24.7784H69.601C71.651 24.7784 74.551 26.4784 74.551 29.8784C74.551 34.4284 71.251 35.2534 69.501 35.2534ZM65.326 32.7034H69.526C70.201 32.7034 71.576 32.1284 71.576 29.8784C71.576 28.3034 70.451 27.3534 69.601 27.3534H65.326V32.7034ZM91.4336 34.4034V38.3784C91.4336 38.9534 91.6336 39.4534 92.6086 39.4534H99.3836V42.0034H92.4586C89.6836 41.9284 88.4586 41.0784 88.4086 38.5034V24.7784H99.3836V27.3284H91.4336V31.8534H98.8336V34.4034H91.4336ZM116.886 29.4784V42.0034H113.861V24.7784H116.861C119.161 27.6784 122.236 32.2784 124.236 36.5284V24.7784H127.261V42.0034H124.236C122.236 38.0034 120.011 33.9534 116.886 29.4784ZM148.483 42.0034H142.533V24.7784H148.483C152.658 24.7784 156.533 27.7034 156.533 33.4284C156.533 39.2284 152.658 42.0034 148.483 42.0034ZM145.558 39.4534H147.433C151.333 39.4534 153.383 37.4034 153.383 33.4284C153.383 29.5034 151.508 27.3284 147.433 27.3284H145.558V39.4534ZM173.839 24.7784V38.1534C173.839 38.8534 174.089 39.4534 175.264 39.4534H181.989V42.0034H174.864C172.089 41.9284 170.864 41.0784 170.814 38.5034V24.7784H173.839ZM198.483 34.4034V38.3784C198.483 38.9534 198.683 39.4534 199.658 39.4534H206.433V42.0034H199.508C196.733 41.9284 195.508 41.0784 195.458 38.5034V24.7784H206.433V27.3284H198.483V31.8534H205.883V34.4034H198.483Z" fill="white"/>
<circle cx="30.0001" cy="33.3538" r="16.8095" fill="white" fill-opacity="0.5"/>
<g filter="url(#filter0_d_2584_2128)">
<circle cx="22.4379" cy="49.3192" r="9.24751" fill="white"/>
<mask id="mask0_2584_2128" style="mask-type:alpha" maskUnits="userSpaceOnUse" x="21" y="17" width="3" height="26">
<path fill-rule="evenodd" clip-rule="evenodd" d="M21.4207 42.281L21.4207 17.4976L23.4822 17.4976L23.4822 42.281L21.4207 42.281Z" fill="white"/>
</mask>
<g mask="url(#mask0_2584_2128)">
<path d="M46.8096 33.3538C46.8096 42.6374 39.2838 50.1633 30.0001 50.1633C20.7165 50.1633 13.1906 42.6374 13.1906 33.3538C13.1906 24.0702 20.7165 16.5443 30.0001 16.5443C39.2838 16.5443 46.8096 24.0702 46.8096 33.3538Z" fill="white"/>
</g>
</g>
<defs>
<filter id="filter0_d_2584_2128" x="1.19043" y="5.49756" width="42.495" height="65.0691" filterUnits="userSpaceOnUse" color-interpolation-filters="sRGB">
<feFlood flood-opacity="0" result="BackgroundImageFix"/>
<feColorMatrix in="SourceAlpha" type="matrix" values="0 0 0 0 0 0 0 0 0 0 0 0 0 0 0 0 0 0 127 0" result="hardAlpha"/>
<feOffset/>
<feGaussianBlur stdDeviation="6"/>
<feComposite in2="hardAlpha" operator="out"/>
<feColorMatrix type="matrix" values="0 0 0 0 0.376471 0 0 0 0 0.588235 0 0 0 0 1 0 0 0 1 0"/>
<feBlend mode="normal" in2="BackgroundImageFix" result="effect1_dropShadow_2584_2128"/>
<feBlend mode="normal" in="SourceGraphic" in2="effect1_dropShadow_2584_2128" result="shape"/>
</filter>
</defs>
</svg>
