<svg xmlns="http://www.w3.org/2000/svg" width="177" height="58" fill="none"><g fill="#fff" clip-path="url(#a)"><path d="M76.256 34.152c-1.511-1.54-2.266-3.491-2.266-5.852s.755-4.305 2.266-5.83c1.525-1.54 3.447-2.31 5.764-2.31 2.596 0 4.642.939 6.138 2.816a7.816 7.816 0 0 1 1.452 2.794h-1.98c-.308-.733-.697-1.357-1.166-1.87-1.159-1.247-2.64-1.87-4.444-1.87-1.775 0-3.227.579-4.356 1.738s-1.694 2.67-1.694 4.532.565 3.373 1.694 4.532 2.581 1.738 4.356 1.738c1.833 0 3.351-.675 4.554-2.024.484-.557.873-1.239 1.166-2.046h1.98c-.352 1.144-.865 2.134-1.54 2.97-1.54 1.98-3.593 2.97-6.16 2.97-2.317 0-4.239-.763-5.764-2.288zM92.356 36V20.6h1.98v13.53h8.03V36h-10.01zm13.377-1.848c-1.511-1.54-2.266-3.491-2.266-5.852s.755-4.305 2.266-5.83c1.525-1.54 3.446-2.31 5.764-2.31s4.231.77 5.742 2.31c1.525 1.525 2.288 3.469 2.288 5.83s-.763 4.312-2.288 5.852c-1.511 1.525-3.425 2.288-5.742 2.288s-4.239-.763-5.764-2.288zm1.408-10.384c-1.13 1.159-1.694 2.669-1.694 4.532s.564 3.373 1.694 4.532 2.581 1.738 4.356 1.738 3.226-.579 4.356-1.738 1.694-2.669 1.694-4.532-.565-3.373-1.694-4.532-2.582-1.738-4.356-1.738-3.227.579-4.356 1.738zM122.283 36V20.6h6.6c1.716 0 3.08.455 4.092 1.364s1.518 2.068 1.518 3.476c0 1.159-.359 2.149-1.078 2.97-.704.821-1.701 1.371-2.992 1.65l3.96 5.94h-2.31l-3.74-5.72h-4.07V36h-1.98zm1.98-7.59h4.62c1.188 0 2.09-.264 2.706-.792.616-.543.924-1.269.924-2.178s-.308-1.628-.924-2.156c-.616-.543-1.518-.814-2.706-.814h-4.62v5.94zM137.344 36V20.6h10.78v1.87h-8.8v4.84h7.15v1.87h-7.15v4.95h8.8V36h-10.78zm13.032-.044c-.25-.249-.374-.565-.374-.946s.124-.697.374-.946a1.28 1.28 0 0 1 .946-.374c.381 0 .696.125.946.374s.374.565.374.946-.125.697-.374.946-.565.374-.946.374a1.28 1.28 0 0 1-.946-.374zm3.695.044 3.96-15.4h6.05l3.96 15.4h-1.98l-1.21-4.51h-7.59l-1.21 4.51h-1.98zm3.63-6.38h6.71l-1.87-7.15h-2.97l-1.87 7.15zM170.237 36V20.6h1.98V36h-1.98zM44.418 4.377C40.014 1.642 36.159.365 30.286 0c-5.506 5.107-5.323 15.503 0 20.245 2.202-8.755 7.341-13.497 14.132-15.868zm6.424 4.925c-8.259-.365-14.683 7.113-14.683 14.409 6.791-4.56 14.683-4.742 21.29-1.094-1.101-5.836-3.184-8.913-6.607-13.315zM58 30.094c-5.139-5.472-15.233-4.925-20.189.182 8.093 1.953 12.48 5.654 16.151 13.862C56.764 39.541 58 36.113 58 30.094zm-9.177 20.428c-.551-8.755-6.524-13.905-14.499-14.409 4.128 7.174 4.956 13.862 1.285 21.157 5.48-1.491 8.626-2.918 13.215-6.748zM27.717 58c5.323-5.289 5.69-13.862 0-20.245-2.202 8.937-6.974 13.497-14.132 16.05 4.929 2.989 8.13 3.663 14.132 4.195zM7.528 48.699c8.574-.796 14.132-6.384 14.132-14.591C16.337 38.302 7.344 38.85.37 35.749c1.948 5.666 3.496 8.629 7.158 12.95zM.003 27.723c4.588 4.925 14.132 5.654 20.189 0-8.626-2.006-13.679-7.059-15.968-13.679-2.569 3.83-4.303 9.122-4.221 13.679zM9.18 7.66c1.285 8.755 6.057 13.497 14.499 14.226-4.261-7.003-4.588-13.679-1.468-21.157-6.057 1.459-9.26 3.47-13.031 6.931z"/></g><defs><clipPath id="a"><path fill="#fff" d="M0 0h177v58H0z"/></clipPath></defs></svg>