<svg width="80" height="22" viewBox="0 0 80 22" fill="none" xmlns="http://www.w3.org/2000/svg">
<path d="M17.4331 0.803223H17.3697V0.854802V18.887L9.58691 0.834172L9.57635 0.803223H9.53411H5.11999H0.167302H0.114502V0.854802V21.5279V21.5795H0.167302H5.11999H5.17279V21.5279V3.46473L12.9873 21.5485L12.9978 21.5795H13.0401H17.4331H22.3752H22.428V21.5279V0.854802V0.803223H22.3752H17.4331Z" fill="white"/>
<path fill-rule="evenodd" clip-rule="evenodd" d="M17.2552 0.691406H22.5425V21.6914H12.9153L12.88 21.5881L5.28733 4.01746V21.6914H0V0.691406H9.65891L9.69418 0.794772L17.2552 18.3332V0.691406ZM17.3697 18.8871L9.58693 0.834228L9.57637 0.803278H0.11452V21.5795H5.17281V3.46479L12.9873 21.5486L12.9978 21.5795H22.428V0.803278H17.3697V18.8871Z" fill="white"/>
<path d="M79.8326 0.803223H70.3919H70.3391L70.3285 0.844489L65.492 18.9696L60.6449 0.844489L60.6343 0.803223H60.5921H51.1303H51.0669V0.854802V21.5279V21.5795H51.1303H56.0724H56.1252V21.5279V3.60915L60.9089 21.5382L60.9195 21.5795H60.9723H69.9906H70.0328L70.0434 21.5382L74.8271 3.60915V21.5279V21.5795H74.8799H79.8326H79.8854V21.5279V0.854802V0.803223H79.8326Z" fill="white"/>
<path fill-rule="evenodd" clip-rule="evenodd" d="M70.2497 0.691406H79.9999V21.6914H74.7126V4.48197L70.1545 21.5654L70.1542 21.5665L70.1223 21.6914H60.8301L60.7981 21.5665L60.7978 21.5654L56.2397 4.48197V21.6914H50.9524V0.691406H60.7238L60.7557 0.816268L60.756 0.817419L65.4919 18.5266L70.2174 0.817419L70.2177 0.816326L70.2497 0.691406ZM65.492 18.9696L60.6449 0.844544L60.6344 0.803278H51.0669V21.5795H56.1252V3.60921L60.9089 21.5383L60.9195 21.5795H70.0329L70.0434 21.5383L74.8271 3.60921V21.5795H79.8854V0.803278H70.3391L70.3285 0.844544L65.492 18.9696Z" fill="white"/>
<path d="M42.9251 0.803223H42.8934L42.8828 0.823856L36.8741 11.0263L30.8338 0.823856L30.8232 0.803223H30.7915H25.0785H24.9729L25.0257 0.885752L34.3291 16.6278V21.5279V21.5795H34.3819H39.3346H39.3874V21.5279V16.6278L48.6909 0.885752L48.7437 0.803223H48.6381H42.9251Z" fill="white"/>
<path fill-rule="evenodd" clip-rule="evenodd" d="M42.8227 0.691406H48.9504L48.7891 0.943437L39.502 16.6579V21.6914H34.2147V16.6579L24.9276 0.943438L24.7664 0.691406H30.894L30.9347 0.770843L36.8739 10.8025L42.782 0.770957L42.8227 0.691406ZM42.8829 0.823911L36.8742 11.0264L30.8338 0.823911L30.8233 0.803278H24.973L25.0258 0.885807L34.3292 16.6279V21.5795H39.3875V16.6279L48.691 0.885807L48.7438 0.803278H42.8935L42.8829 0.823911Z" fill="white"/>
</svg>
