<svg width="117" height="26" viewBox="0 0 117 26" fill="none" xmlns="http://www.w3.org/2000/svg">
<path d="M35.7772 18.2066C38.8629 18.2066 40.7144 15.9446 40.7144 13.2536C40.7144 10.5821 38.8629 8.32007 35.7772 8.32007C32.7108 8.32007 30.8594 10.5821 30.8594 13.2536C30.8594 15.9446 32.7108 18.2066 35.7772 18.2066ZM35.7772 16.0031C34.2537 16.0031 33.4051 14.7356 33.4051 13.2536C33.4051 11.7911 34.2537 10.5236 35.7772 10.5236C37.3008 10.5236 38.1687 11.7911 38.1687 13.2536C38.1687 14.7356 37.3008 16.0031 35.7772 16.0031Z" fill="white"/>
<path d="M42.5315 17.9726H44.9807V11.7521C45.3857 11.1476 46.4657 10.6991 47.2757 10.6991C47.5457 10.6991 47.7772 10.7186 47.9507 10.7576V8.33957C46.7936 8.33957 45.6365 9.00257 44.9807 9.84107V8.55407H42.5315V17.9726Z" fill="white"/>
<path d="M50.6961 7.16957C51.5061 7.16957 52.1618 6.50657 52.1618 5.68757C52.1618 4.86857 51.5061 4.20557 50.6961 4.20557C49.9054 4.20557 49.2304 4.86857 49.2304 5.68757C49.2304 6.50657 49.9054 7.16957 50.6961 7.16957ZM49.4811 17.9726H51.9304V8.55407H49.4811V17.9726Z" fill="white"/>
<path d="M54.1662 20.3906C55.3233 21.4241 56.5769 21.7946 58.1776 21.7946C60.4726 21.7946 63.2112 20.9171 63.2112 17.3291V8.55407H60.7426V9.76307C59.9904 8.80757 58.9876 8.32007 57.869 8.32007C55.5162 8.32007 53.7612 10.0361 53.7612 13.1171C53.7612 16.2566 55.5354 17.9141 57.869 17.9141C59.0069 17.9141 60.0097 17.3681 60.7426 16.4321V17.3876C60.7426 19.2401 59.354 19.7666 58.1776 19.7666C57.0012 19.7666 56.0176 19.4351 55.2654 18.5966L54.1662 20.3906ZM60.7426 14.6381C60.3376 15.2426 59.4504 15.7106 58.6404 15.7106C57.2519 15.7106 56.2876 14.7356 56.2876 13.1171C56.2876 11.4986 57.2519 10.5236 58.6404 10.5236C59.4504 10.5236 60.3376 10.9721 60.7426 11.5961V14.6381Z" fill="white"/>
<path d="M66.8554 7.16957C67.6654 7.16957 68.3211 6.50657 68.3211 5.68757C68.3211 4.86857 67.6654 4.20557 66.8554 4.20557C66.0647 4.20557 65.3897 4.86857 65.3897 5.68757C65.3897 6.50657 66.0647 7.16957 66.8554 7.16957ZM65.6404 17.9726H68.0897V8.55407H65.6404V17.9726Z" fill="white"/>
<path d="M76.8055 17.9726H79.2548V11.3231C79.2548 9.49007 78.2712 8.32007 76.2269 8.32007C74.7033 8.32007 73.5655 9.06107 72.9676 9.78257V8.55407H70.5183V17.9726H72.9676V11.6351C73.3726 11.0696 74.1248 10.5236 75.089 10.5236C76.1305 10.5236 76.8055 10.9721 76.8055 12.2786V17.9726Z" fill="white"/>
<path d="M84.811 18.2066C85.8331 18.2066 86.4889 17.9336 86.8553 17.6021L86.3346 15.7301C86.1996 15.8666 85.8524 16.0031 85.486 16.0031C84.946 16.0031 84.6374 15.5546 84.6374 14.9696V10.7186H86.5274V8.55407H84.6374V5.98007H82.1689V8.55407H80.626V10.7186H82.1689V15.6326C82.1689 17.3096 83.0946 18.2066 84.811 18.2066Z" fill="white"/>
<path d="M88.2032 17.9726H90.6525V11.7521C91.0575 11.1476 92.1375 10.6991 92.9475 10.6991C93.2175 10.6991 93.4489 10.7186 93.6225 10.7576V8.33957C92.4653 8.33957 91.3082 9.00257 90.6525 9.84107V8.55407H88.2032V17.9726Z" fill="white"/>
<path d="M101.556 17.9726H104.024V8.55407H101.556V9.76307C100.823 8.80757 99.7814 8.32007 98.6821 8.32007C96.31 8.32007 94.555 10.1921 94.555 13.2731C94.555 16.4126 96.3292 18.2066 98.6821 18.2066C99.8007 18.2066 100.823 17.6996 101.556 16.7831V17.9726ZM101.556 14.9306C101.131 15.5546 100.264 16.0031 99.4342 16.0031C98.0457 16.0031 97.0814 14.8916 97.0814 13.2731C97.0814 11.6351 98.0457 10.5431 99.4342 10.5431C100.264 10.5431 101.131 10.9916 101.556 11.6156V14.9306Z" fill="white"/>
<path d="M107.668 7.16957C108.478 7.16957 109.134 6.50657 109.134 5.68757C109.134 4.86857 108.478 4.20557 107.668 4.20557C106.877 4.20557 106.202 4.86857 106.202 5.68757C106.202 6.50657 106.877 7.16957 107.668 7.16957ZM106.453 17.9726H108.902V8.55407H106.453V17.9726Z" fill="white"/>
<path d="M113.954 18.2066C114.957 18.2066 115.612 17.9336 115.979 17.6021L115.458 15.7301C115.342 15.8666 114.995 16.0031 114.629 16.0031C114.089 16.0031 113.78 15.5546 113.78 14.9696V4.96607H111.331V15.6326C111.331 17.3096 112.237 18.2066 113.954 18.2066Z" fill="white"/>
<path fill-rule="evenodd" clip-rule="evenodd" d="M12.8571 6.4658C9.28831 6.4658 6.39475 9.39105 6.39475 13C6.39475 16.6084 9.28831 19.5337 12.8571 19.5337C14.8408 19.5337 16.6154 18.6296 17.8007 17.2071L22.6932 21.3708C20.3347 24.2011 16.8039 25.9999 12.8571 25.9999C5.7561 25.9999 0 20.1795 0 13C0 5.82006 5.7561 0 12.8571 0V6.4658ZM23.9668 19.5462L18.4409 16.2901C18.6295 15.9637 18.791 15.6194 18.922 15.2601L24.924 17.4968C24.6634 18.2117 24.3419 18.8967 23.9668 19.5462ZM19.3191 12.9999H25.7143C25.7143 12.2298 25.6477 11.4755 25.5206 10.7422L19.2218 11.8652C19.2856 12.2338 19.3191 12.6129 19.3191 12.9999ZM22.7403 4.6852L17.8246 8.82087C17.5838 8.52862 17.3183 8.25813 17.0313 8.01231L21.1619 3.07656C21.7329 3.56562 22.2613 4.10376 22.7403 4.6852Z" fill="white"/>
</svg>
