<svg width="938" height="300" viewBox="0 0 938 300" fill="none" xmlns="http://www.w3.org/2000/svg">
<path fill-rule="evenodd" clip-rule="evenodd" d="M0 208.161V23.0778C0 16.9572 2.43744 11.0872 6.77612 6.75932C11.1148 2.4314 16.9993 0 23.1351 0H190.865C197.001 0 202.885 2.4314 207.224 6.75932C211.563 11.0872 214 16.9572 214 23.0778V208.161C213.998 211.618 213.217 215.031 211.715 218.146C210.214 221.262 208.03 224.001 205.324 226.162L117.845 296.203C114.767 298.661 110.942 300 107 300C103.058 300 99.2329 298.661 96.1554 296.203L8.67568 226.162C5.97033 224.001 3.78617 221.262 2.28454 218.146C0.782904 215.031 0.00216569 211.618 0 208.161ZM168.963 66.2179V106.654C168.963 112.009 166.878 117.146 163.167 120.936C159.455 124.727 154.42 126.861 149.166 126.871C154.426 126.871 159.471 129.002 163.191 132.793C166.91 136.585 169 141.727 169 147.089V183.545C168.998 186.573 168.329 189.563 167.041 192.292C165.754 195.022 163.882 197.422 161.562 199.315L130.869 224.435C130.505 224.733 130.065 224.919 129.601 224.973C129.137 225.028 128.668 224.947 128.247 224.741C127.826 224.535 127.47 224.212 127.222 223.809C126.973 223.406 126.841 222.94 126.84 222.464V152.144C126.84 148.122 125.273 144.265 122.483 141.422C119.694 138.578 115.91 136.98 111.965 136.98H89.6514C88.9939 136.98 88.3633 137.247 87.8983 137.721C87.4334 138.195 87.1721 138.837 87.1721 139.508V222.464C87.1737 222.942 87.0422 223.411 86.7928 223.816C86.5434 224.221 86.1863 224.546 85.7631 224.752C85.3399 224.959 84.8679 225.039 84.402 224.983C83.9361 224.926 83.4953 224.737 83.131 224.435L52.4378 199.315C50.1184 197.422 48.2459 195.022 46.9586 192.292C45.6712 189.563 45.0019 186.573 45 183.545V66.2179C45 60.8558 47.0897 55.7133 50.8093 51.9217C54.5289 48.1301 59.5737 46 64.834 46H149.129C154.389 46 159.434 48.1301 163.154 51.9217C166.873 55.7133 168.963 60.8558 168.963 66.2179ZM89.6266 116.763H111.94C115.885 116.763 119.669 115.165 122.459 112.321C125.248 109.478 126.815 105.621 126.815 101.599V68.7451C126.815 68.0748 126.554 67.432 126.089 66.9581C125.624 66.4841 124.994 66.2179 124.336 66.2179H89.6266C88.9691 66.2179 88.3385 66.4841 87.8735 66.9581C87.4086 67.432 87.1474 68.0748 87.1474 68.7451V114.235C87.1474 114.906 87.4086 115.548 87.8735 116.022C88.3385 116.496 88.9691 116.763 89.6266 116.763Z" fill="white"/>
<path d="M348.585 225.044V182.008H380.395L409.216 225.044H446.364L412.846 175.387C422.666 170.973 430.245 164.61 435.582 156.297C440.92 147.984 443.588 138.089 443.588 126.613C443.588 115.137 440.955 105.205 435.689 96.8187C430.423 88.4321 422.915 81.9583 413.166 77.3972C403.417 72.8361 391.924 70.5556 378.687 70.5556H314V225.044H348.585ZM378.351 154.644H349.927V99.8889H378.351C388.831 99.8889 396.798 102.245 402.254 106.958C407.709 111.67 410.436 118.44 410.436 127.267C410.436 135.944 407.709 142.676 402.254 147.463C396.798 152.251 388.831 154.644 378.351 154.644ZM524.944 227C537.091 227 547.952 224.368 557.527 219.105C567.102 213.842 574.605 206.541 580.036 197.201C585.467 187.861 588.182 177.26 588.182 165.4C588.182 153.54 585.467 142.939 580.036 133.599C574.605 124.259 567.102 116.958 557.527 111.695C547.952 106.432 537.091 103.8 524.944 103.8C512.796 103.8 501.899 106.432 492.253 111.695C482.606 116.958 475.067 124.259 469.637 133.599C464.206 142.939 461.491 153.54 461.491 165.4C461.491 177.26 464.206 187.861 469.637 197.201C475.067 206.541 482.606 213.842 492.253 219.105C501.899 224.368 512.796 227 524.944 227ZM524.943 199.622C516.417 199.622 509.382 196.61 503.84 190.586C498.298 184.562 495.527 176.492 495.527 166.378C495.527 156.263 498.298 148.194 503.84 142.17C509.382 136.145 516.417 133.133 524.943 133.133C533.469 133.133 540.468 136.145 545.939 142.17C551.41 148.194 554.145 156.263 554.145 166.378C554.145 176.492 551.41 184.562 545.939 190.586C540.468 196.61 533.469 199.622 524.943 199.622ZM642.234 225.044V165.977C642.234 155.318 644.721 147.287 649.695 141.883C654.669 136.48 661.347 133.778 669.732 133.778C677.263 133.778 683.018 136.11 686.997 140.773C690.976 145.436 692.966 152.505 692.966 161.98V225.044H726.218V156.65C726.218 139.181 721.848 126.006 713.109 117.124C704.37 108.241 692.895 103.8 678.684 103.8C670.868 103.8 663.692 105.169 657.155 107.908C650.618 110.647 645.147 114.533 640.742 119.566V105.576H608.982V225.044H642.234ZM773.491 90.1111C779.638 90.1111 784.641 88.2005 788.501 84.3793C792.361 80.5581 794.291 75.7254 794.291 69.8812C794.291 64.4866 792.361 59.9911 788.501 56.3946C784.641 52.7982 779.638 51 773.491 51C767.344 51 762.34 52.8731 758.481 56.6194C754.621 60.3657 752.691 65.0111 752.691 70.5556C752.691 76.1 754.621 80.7454 758.481 84.4917C762.34 88.238 767.344 90.1111 773.491 90.1111ZM790.509 225.044V105.756H756.473V225.044H790.509ZM854.016 225.044V165.977C854.016 155.318 856.503 147.287 861.477 141.883C866.45 136.48 873.129 133.778 881.513 133.778C889.045 133.778 894.8 136.11 898.779 140.773C902.758 145.436 904.748 152.505 904.748 161.98V225.044H938V156.65C938 139.181 933.63 126.006 924.891 117.124C916.151 108.241 904.677 103.8 890.466 103.8C882.65 103.8 875.474 105.169 868.937 107.908C862.4 110.647 856.929 114.533 852.524 119.566V105.576H820.764V225.044H854.016Z" fill="white"/>
</svg>
