<svg xmlns="http://www.w3.org/2000/svg" viewBox="0 0 650 175"><defs><style>.cls-1{fill:#fff;}</style></defs><g id="new"><path class="cls-1" d="M42.05556,12.74c-5.74723,5.43968-10.802,11.396-13.65221,17.97974a33.14334,33.14334,0,0,0-2.1683,20.32982,30.65829,30.65829,0,0,0,9.21412,17.09793c4.7942,4.76238,11.28092,8.67925,18.14492,12.87948,6.81855,4.24721,14.319,8.852,20.51776,15.86448A42.16936,42.16936,0,0,1,84.5215,122.402a43.15711,43.15711,0,0,1-6.40492,25.78929c-4.75628,7.52465-11.51273,13.04918-18.60093,17.26906a2.06193,2.06193,0,0,1-2.385-3.34712c5.97909-5.10027,11.13542-11.0339,14.175-17.6752a34.73629,34.73629,0,0,0,2.58042-20.88749,30.02532,30.02532,0,0,0-9.38228-17.56607c-4.93514-4.726-11.44456-8.499-18.37372-12.53859-6.87764-4.09563-14.46444-8.42317-20.989-15.225a43.31994,43.31994,0,0,1-7.96709-11.87794,42.8444,42.8444,0,0,1-3.3653-13.75223c-.63642-9.149,1.51672-18.83433,6.61851-26.32264A51.73688,51.73688,0,0,1,39.74336,9.48077,2.01543,2.01543,0,0,1,42.05556,12.74Z"/><path class="cls-1" d="M58.42616,9.405A49.15811,49.15811,0,0,1,72.883,19.7798,44.97042,44.97042,0,0,1,78.64241,27.462a41.26879,41.26879,0,0,1,3.87291,9.32325,42.49807,42.49807,0,0,1,1.34553,10.21414c-.06969,3.41986-.91063,20.00256-10.05809,27.98029a5.32162,5.32162,0,0,1-7.43832-1.3349,5.7803,5.7803,0,0,1-.27123-5.82459l.11671-.21511c2.45467-4.62907,12.66129-22.62246,1.01067-42.47955A85.45506,85.45506,0,0,0,56.58668,12.4643l-.01364-.01216a1.96977,1.96977,0,0,1-.07879-2.61984A1.61566,1.61566,0,0,1,58.42616,9.405Z"/><path class="cls-1" d="M39.94789,165.59519a49.20566,49.20566,0,0,1-14.45682-10.37482,44.93949,44.93949,0,0,1-5.75939-7.68372,41.22972,41.22972,0,0,1-3.873-9.32173,42.4321,42.4321,0,0,1-1.344-10.2157c.06816-3.41986.91062-20.001,10.05659-27.97877a5.32128,5.32128,0,0,1,7.43822,1.33489,5.77653,5.77653,0,0,1,.27125,5.8246l-.11666.21516c-2.45467,4.629-12.66127,22.62088-1.00917,42.47955a85.36964,85.36964,0,0,0,10.634,12.66127l.01212.01211a1.96982,1.96982,0,0,1,.07879,2.61984,1.6153,1.6153,0,0,1-1.932.42732Z"/><path class="cls-1" d="M124.71278,98.69615h-7.2004c0,8.3638,7.74424,16.18648,18.66513,16.18648,10.45288,0,16.87941-6.27222,17.81015-13.94066,1.085-8.51812-4.25906-14.17325-14.24913-16.72761l-6.97037-1.70222c-6.73763-1.6261-7.59-5.11392-7.59-7.4357,0-4.87862,4.8029-8.05535,9.9901-8.05535,5.80952,0,10.06854,3.40939,10.06854,8.7535h7.203c0-9.6058-7.4357-15.64535-17.1931-15.64535-9.062,0-17.26894,6.03955-17.26894,15.02308,0,4.64858,1.70206,11.07511,13.00988,13.94066l6.89186,1.70469c4.80034,1.08234,9.52477,3.79365,9.0594,9.52474-.61709,4.02894-3.948,7.82267-10.76142,7.82267-6.73767,0-11.3863-4.80035-11.46473-9.44893Z"/><path class="cls-1" d="M171.40305,114.1062h-6.96774V77.94206h6.96774V114.1062ZM163.0418,64.621a4.88911,4.88911,0,0,0,9.7574,0,4.8893,4.8893,0,0,0-9.7574,0Z"/><path class="cls-1" d="M190.40018,94.59132c0-7.66573,5.11141-10.53136,10.22277-10.53136,4.95454,0,7.97695,3.56362,7.97695,9.60317V114.1062h7.04617V93.1978c0-10.14438-4.95713-16.02969-13.94066-16.02969-3.948,0-9.13776,1.85637-11.30523,6.19386V77.94206h-7.04872V114.1062h7.04872V94.59132Z"/><path class="cls-1" d="M232.77642,119.296c-.93078.46541-4.9571,2.71123-5.88787,3.09821a18.37951,18.37951,0,0,0,16.34338,9.7574c11.92487,0,19.74492-6.505,19.74492-23.5412V77.94206h-6.9677v5.65257c-2.40017-4.1807-7.6684-6.42652-12.70142-6.42652-9.91426,0-18.354,7.43314-18.354,18.97367,0,11.45946,8.43973,18.74085,18.354,18.74085,5.033,0,10.53132-2.40006,12.70142-6.65911,0,.30846.07843.5412.07843.84967,0,12.0033-5.0356,16.41923-12.85565,16.41923a11.97776,11.97776,0,0,1-10.45551-6.19642Zm23.1543-23.23265a11.77769,11.77769,0,0,1-12.00335,11.92742c-6.50492,0-11.77059-4.57016-11.77059-11.92742A11.62889,11.62889,0,0,1,243.92737,84.06c6.42653,0,12.00335,4.25914,12.00335,12.00339Z"/><path class="cls-1" d="M299.71619,97.45678c0,7.74433-5.11137,10.534-10.22281,10.534-4.9545,0-7.89848-3.56362-7.89848-9.6058V77.94206h-7.04876V98.85038c-.07584,10.14438,4.88129,16.03225,13.94062,16.03225,3.948,0,9.062-1.85893,11.22943-6.19642v5.42h7.04613V77.94206h-7.04613V97.45678Z"/><polygon class="cls-1" points="318.726 58.27 318.726 114.106 325.775 114.106 325.775 58.27 318.726 58.27 318.726 58.27"/><path class="cls-1" d="M366.64287,114.1062h6.97033V77.94206h-6.97033V83.362c-2.40017-4.10491-7.6684-6.19386-12.70141-6.19386-9.91168,0-18.354,7.27883-18.354,18.8168,0,11.462,8.44228,18.89772,18.354,18.89772,5.033,0,10.30124-2.24582,12.70141-6.35065v5.57422ZM366.5644,95.909c0,7.66582-5.57677,12.08174-12.0033,12.08174A11.64875,11.64875,0,0,1,342.7905,95.909,11.40791,11.40791,0,0,1,354.5611,84.06c5.80948,0,12.0033,4.10491,12.0033,11.84907Z"/><path class="cls-1" d="M392.647,100.942c0-9.60309,2.94134-17.03879,9.91163-17.03879a12.56431,12.56431,0,0,1,5.34411,1.24191l1.085-6.58347a13.40167,13.40167,0,0,0-6.27477-1.39351c-4.72187,0-8.20706,2.55436-10.06594,8.90509V77.94206h-7.04617V114.1062H392.647V100.942Z"/><path class="cls-1" d="M423.57678,114.1062h-6.97029V77.94206h6.97029V114.1062ZM415.21289,64.621a4.89052,4.89052,0,0,0,9.76,0,4.89071,4.89071,0,0,0-9.76,0Z"/><polygon class="cls-1" points="445.073 77.942 445.073 64.312 438.027 64.312 438.027 77.942 431.522 77.942 431.522 83.903 438.027 83.903 438.027 114.106 445.073 114.106 445.073 83.903 452.739 83.903 452.739 77.942 445.073 77.942 445.073 77.942"/><polygon class="cls-1" points="472.874 131.689 495.332 77.942 487.821 77.942 476.979 104.119 466.139 77.942 458.627 77.942 473.106 113.024 465.516 131.689 472.874 131.689 472.874 131.689"/><polygon class="cls-1" points="542.172 114.106 542.172 60.749 534.969 60.749 534.969 100.634 510.884 60.749 503.759 60.749 503.759 114.106 510.962 114.106 510.962 73.913 535.277 114.106 542.172 114.106 542.172 114.106"/><polygon class="cls-1" points="557.239 60.749 557.239 114.106 589.61 114.106 589.61 107.368 564.442 107.368 564.442 91.263 585.738 91.263 585.738 84.525 564.442 84.525 564.442 67.487 588.836 67.487 588.836 60.749 557.239 60.749 557.239 60.749"/><polygon class="cls-1" points="596.648 60.749 596.648 67.565 612.835 67.565 612.835 114.106 620.113 114.106 620.113 67.565 636.3 67.565 636.3 60.749 596.648 60.749 596.648 60.749"/></g></svg>