<svg width="72" height="24" viewBox="0 0 72 24" fill="none" xmlns="http://www.w3.org/2000/svg">
<path fill-rule="evenodd" clip-rule="evenodd" d="M15.6783 0C17.1167 0 18.2828 1.18184 18.2828 2.63966V20.5894C18.2828 22.0473 17.1167 23.2291 15.6783 23.2291C14.2399 23.2291 13.0739 22.0473 13.0739 20.5894V2.63966C13.0739 1.18184 14.2399 0 15.6783 0ZM30.3347 13.0546H31.9171V14.4148H30.3347V13.0546ZM30.3771 15.6033H31.8605L31.8745 22.7483H30.3771V15.6033ZM22.6121 13.1982H28.6587V14.5298H24.1661V17.3792H28.0936V18.7252H24.1661V22.7487H22.6121V13.1982ZM35.5443 15.6171C34.9415 15.7508 34.4282 15.9274 34.0044 16.1469V22.7478H35.488V16.963C35.9775 16.7817 36.4911 16.691 37.0278 16.691C38.1484 16.691 38.7089 17.1921 38.7089 18.1945V22.7478H40.1925V17.994C40.1925 17.1062 39.9568 16.4524 39.4858 16.0324C39.0152 15.6123 38.2851 15.4023 37.2963 15.4023C36.7404 15.4023 36.1565 15.4739 35.5443 15.6171ZM45.349 15.4023C46.1213 15.4023 46.7759 15.5932 47.3126 15.9751C47.8591 16.3474 48.1276 16.9535 48.1182 17.7936V21.23C48.1182 21.8791 47.8353 22.3325 47.2703 22.5903C46.7052 22.8385 45.9 22.9626 44.8546 22.9626C44.0165 22.9626 43.3242 22.7859 42.7777 22.4328C42.2315 22.0796 41.9584 21.4877 41.9584 20.6573C41.9584 19.8745 42.1798 19.2875 42.6224 18.8961C43.0745 18.5047 43.7102 18.309 44.5297 18.309C45.3773 18.309 46.0836 18.4808 46.6486 18.8245V18.1372C46.6486 17.1635 46.0696 16.6767 44.9112 16.6767C44.4965 16.6767 44.0822 16.7435 43.6679 16.8771C43.2535 17.0012 42.9098 17.1778 42.6364 17.4069V16.0037C42.9004 15.8319 43.2818 15.6887 43.7808 15.5741C44.2895 15.4596 44.8122 15.4023 45.349 15.4023ZM45.0241 21.7884C45.6175 21.7884 46.0367 21.7455 46.2815 21.6596C46.5262 21.5737 46.6486 21.4018 46.6486 21.1441V19.7552C46.1685 19.5452 45.6409 19.4402 45.0664 19.4402C44.5297 19.4402 44.1199 19.5356 43.8374 19.7266C43.5644 19.9175 43.4277 20.2038 43.4277 20.5857C43.4277 20.9866 43.5829 21.2873 43.8937 21.4877C44.214 21.6882 44.5909 21.7884 45.0241 21.7884ZM51.7567 15.6171C51.1539 15.7508 50.6406 15.9274 50.2168 16.1469V22.7478H51.7V16.963C52.1899 16.7817 52.7032 16.691 53.2399 16.691C54.3608 16.691 54.9213 17.1921 54.9213 18.1945V22.7478H56.4045V17.994C56.4045 17.1062 56.1692 16.4524 55.6982 16.0324C55.2273 15.6123 54.4976 15.4023 53.5084 15.4023C52.9528 15.4023 52.3689 15.4739 51.7567 15.6171ZM61.6151 22.891C60.6169 22.891 59.7834 22.5998 59.1148 22.0175C58.4554 21.4353 58.1257 20.495 58.1257 19.1968C58.1257 17.8604 58.4508 16.8962 59.1005 16.3044C59.7599 15.703 60.5935 15.4023 61.6012 15.4023C62.3641 15.4023 63.0893 15.5455 63.7767 15.8319V17.1778C63.0609 16.8724 62.4064 16.7197 61.813 16.7197C61.069 16.7197 60.5134 16.9106 60.1459 17.2924C59.7788 17.6647 59.5949 18.2613 59.5949 19.0822C59.5949 19.9413 59.7739 20.5714 60.1319 20.9723C60.4896 21.3636 61.0641 21.5593 61.8554 21.5593C62.4959 21.5593 63.141 21.4018 63.791 21.0868V22.4328C63.1127 22.7383 62.3875 22.891 61.6151 22.891ZM70.8432 16.477C70.3345 15.7515 69.5293 15.3887 68.4272 15.3887C67.3818 15.3887 66.572 15.7181 65.9975 16.3767C65.423 17.0258 65.1356 17.9661 65.1356 19.1975C65.1356 20.4002 65.437 21.331 66.0398 21.9896C66.652 22.6387 67.4901 22.9633 68.5545 22.9633C69.5059 22.9633 70.3489 22.801 71.0835 22.4764V21.0732C70.7821 21.245 70.4335 21.3882 70.038 21.5028C69.6422 21.6078 69.2279 21.6603 68.7947 21.6603C68.1258 21.6603 67.608 21.4789 67.2405 21.1162C66.8828 20.7439 66.6804 20.2046 66.6332 19.4982H71.6062C71.6156 18.2 71.3611 17.1929 70.8432 16.477ZM67.2125 17.0211C67.495 16.7538 67.8859 16.6201 68.3849 16.6201C68.9125 16.6201 69.3129 16.7633 69.5859 17.0497C69.859 17.3265 70.0286 17.7704 70.0943 18.3813H66.6615C66.7461 17.7418 66.9297 17.2883 67.2125 17.0211ZM10.9902 9.79363C10.9902 8.4671 9.9292 7.39175 8.62037 7.39175C7.31154 7.39175 6.25054 8.4671 6.25054 9.79363V16.1987C6.25054 17.5252 7.31154 18.6006 8.62037 18.6006C9.9292 18.6006 10.9902 17.5252 10.9902 16.1987V9.79363ZM4.7397 6.62548C4.7397 5.29895 3.67866 4.22361 2.36983 4.22361C1.061 4.22361 0 5.29895 0 6.62548V7.42612C0 8.75265 1.061 9.828 2.36983 9.828C3.67866 9.828 4.7397 8.75265 4.7397 7.42612V6.62548ZM10.9902 3.458C10.9902 2.13147 9.9292 1.05612 8.62037 1.05612C7.31154 1.05612 6.25054 2.13147 6.25054 3.458V4.25864C6.25054 5.58517 7.31154 6.66052 8.62037 6.66052C9.9292 6.66052 10.9902 5.58517 10.9902 4.25864V3.458ZM28.4484 8.96234L26.5393 6.12717L24.8424 8.96234H22.5223L25.4522 4.50134L22.4163 0H25.081L27.0034 2.8486L28.6473 0H31.0204L28.117 4.50134L31.1132 8.96234H28.4484ZM38.2543 0H32.1957V8.96234H38.2543V7.28275H34.3436V5.32097H37.7376V3.62794H34.3436V1.67959H38.2543V0ZM47.7704 0V8.96234H46.1529L42.0299 3.507V8.96234H40.0547V0H41.8841L45.7952 5.3344V0H47.7704ZM53.2001 0H49.6473V8.96234H53.2001C54.685 8.96234 55.7854 8.5906 56.5014 7.84709C57.2172 7.09461 57.5752 5.97489 57.5752 4.4879C57.5752 2.99191 57.2172 1.8722 56.5014 1.12868C55.7854 0.37624 54.685 0 53.2001 0ZM54.7644 6.59746C54.3581 7.05432 53.7525 7.28275 52.9483 7.28275H51.7949V1.67959H52.9483C53.7525 1.67959 54.3581 1.90802 54.7644 2.36488C55.171 2.81278 55.3745 3.52043 55.3745 4.4879C55.3745 5.43742 55.171 6.1406 54.7644 6.59746Z" fill="white"/>
</svg>
